<svg width="35" height="35" viewBox="0 0 35 35" fill="none" xmlns="http://www.w3.org/2000/svg">
<g clip-path="url(#clip0_255_3)">
<path d="M32.0833 17.5C32.0833 15.5849 31.7061 13.6886 30.9732 11.9191C30.2403 10.15 29.1662 8.54209 27.812 7.18809C26.4578 5.8337 24.8501 4.75954 23.0807 4.02681C21.3115 3.29372 19.4151 2.91669 17.5 2.91669V5.83335C19.0321 5.83335 20.5492 6.13527 21.9647 6.72132C23.3801 7.30771 24.6663 8.16718 25.7496 9.25061C26.8329 10.3337 27.6923 11.62 28.2785 13.0353C28.8649 14.4509 29.1667 15.968 29.1667 17.5H32.0833Z" fill="black"/>
<g filter="url(#filter0_d_255_3)">
<path d="M2.91667 14.5833V7.29165C2.91667 6.48628 3.5696 5.83331 4.37501 5.83331H11.6667C12.4721 5.83331 13.125 6.48628 13.125 7.29165V13.125C13.125 13.9303 12.4721 14.5833 11.6667 14.5833H8.75001C8.75001 21.0265 13.9734 26.25 20.4167 26.25V23.3333C20.4167 22.528 21.0696 21.875 21.875 21.875H27.7083C28.5138 21.875 29.1667 22.528 29.1667 23.3333V30.625C29.1667 31.4303 28.5138 32.0833 27.7083 32.0833H20.4167C10.7517 32.0833 2.91667 24.2483 2.91667 14.5833Z" fill="black"/>
</g>
<path d="M25.584 14.1515C26.0237 15.2132 26.25 16.3511 26.25 17.5H23.625C23.625 16.6957 23.4666 15.8992 23.1588 15.1562C22.8509 14.4128 22.3999 13.7377 21.831 13.1691C21.2622 12.6002 20.5871 12.1491 19.844 11.8411C19.1008 11.5335 18.3043 11.3751 17.5 11.3751V8.75C18.649 8.75 19.7868 8.97644 20.8485 9.41615C21.91 9.85585 22.8747 10.5003 23.6871 11.3128C24.4997 12.1252 25.1443 13.0898 25.584 14.1515Z" fill="black"/>
</g>
<defs>
<filter id="filter0_d_255_3" x="-1.08333" y="5.83331" width="34.25" height="34.25" filterUnits="userSpaceOnUse" color-interpolation-filters="sRGB">
<feFlood flood-opacity="0" result="BackgroundImageFix"/>
<feColorMatrix in="SourceAlpha" type="matrix" values="0 0 0 0 0 0 0 0 0 0 0 0 0 0 0 0 0 0 127 0" result="hardAlpha"/>
<feOffset dy="4"/>
<feGaussianBlur stdDeviation="2"/>
<feComposite in2="hardAlpha" operator="out"/>
<feColorMatrix type="matrix" values="0 0 0 0 0 0 0 0 0 0 0 0 0 0 0 0 0 0 0.25 0"/>
<feBlend mode="normal" in2="BackgroundImageFix" result="effect1_dropShadow_255_3"/>
<feBlend mode="normal" in="SourceGraphic" in2="effect1_dropShadow_255_3" result="shape"/>
</filter>
<clipPath id="clip0_255_3">
<rect width="35" height="35" fill="white"/>
</clipPath>
</defs>
</svg>
