<?xml version="1.0" encoding="iso-8859-1"?>
<!-- Uploaded to: SVG Repo, www.svgrepo.com, Generator: SVG Repo Mixer Tools -->
<svg fill="#000000" height="800px" width="800px" version="1.1" id="Capa_1" xmlns="http://www.w3.org/2000/svg" xmlns:xlink="http://www.w3.org/1999/xlink" 
	 viewBox="0 0 489.981 489.981" xml:space="preserve">
<g>
	<g>
		<g>
			<path d="M189.363,481.081h24.5c3.9,5.1,16.3,8.9,31.1,8.9s27.2-3.9,31.1-8.9h24.5v-86.3h-111.2V481.081z"/>
			<path d="M234.463,0.381c-65.7,5.1-119,56.8-125.6,122.5c-3.9,37.3,7.8,71.9,28.4,98.8c32.7,41.6,51.7,92.2,51.7,145.1v2.3h45.9
				v-176.6l-3.1,3.1c-4.3,3.6-10.1,3.9-14,0l-20-20c-3.9-3.9-4.1-10.6-0.1-14.4c3.9-3.7,10-3.7,13.8,0.2l13.2,13.2l13.3-13.3
				c3.8-3.8,10-3.8,13.8,0l13.3,13.3l13-13c3.9-3.9,10.6-4.1,14.4-0.1c3.7,3.9,3.7,10-0.2,13.8l-20.2,20.2c-3.9,3.9-10.1,3.9-14,0
				l-3.1-3.1v176.6h46v-2.3c0-52.9,19.1-103.4,51.7-144.7c18.3-23.3,29.2-52.5,29.2-84.8
				C381.863,57.881,314.963-5.519,234.463,0.381z"/>
		</g>
	</g>
</g>
</svg>