<?xml version="1.0" standalone="no"?>
<!DOCTYPE svg PUBLIC "-//W3C//DTD SVG 20010904//EN"
 "http://www.w3.org/TR/2001/REC-SVG-20010904/DTD/svg10.dtd">
<svg version="1.0" xmlns="http://www.w3.org/2000/svg"
 width="35.000000pt" height="35.000000pt" viewBox="0 0 35.000000 35.000000"
 preserveAspectRatio="xMidYMid meet">

<g transform="translate(0.000000,35.000000) scale(0.100000,-0.100000)"
fill="#000000" stroke="none">
<path d="M140 333 c-8 -3 -27 -17 -42 -31 -40 -37 -39 -96 2 -147 17 -21 30
-47 30 -58 0 -15 5 -18 23 -13 12 3 30 6 39 6 9 0 20 9 23 20 4 11 17 32 29
48 32 38 39 75 22 116 -21 49 -78 76 -126 59z m94 -43 c27 -27 26 -83 -1 -112
-12 -13 -26 -34 -32 -48 l-10 -25 0 26 c-1 14 4 30 10 36 6 6 9 23 7 39 -2 25
-8 29 -32 29 -42 0 -53 -24 -33 -68 19 -39 23 -73 5 -42 -6 11 -22 33 -35 48
-53 65 -7 156 72 142 16 -3 39 -14 49 -25z m-41 -90 c-2 -31 -21 -100 -22 -82
-1 8 -8 29 -17 48 -20 41 -12 67 18 62 18 -2 23 -9 21 -28z"/>
<path d="M150 70 c-20 -6 -21 -8 -5 -8 11 0 31 4 45 8 20 6 21 8 5 8 -11 0
-31 -4 -45 -8z"/>
<path d="M155 51 c-29 -7 -29 -7 -9 -18 25 -14 64 -6 64 13 0 15 -8 16 -55 5z"/>
</g>
</svg>
