<svg width="322" height="39" viewBox="0 0 322 39" fill="none" xmlns="http://www.w3.org/2000/svg">
<rect x="0.95" y="0.95" width="320.1" height="37.1" rx="5.05" fill="url(#paint0_linear_253_186)" stroke="black" stroke-width="0.1"/>
<path d="M123.657 26V13.4H126.573V23.624H132.891V26H123.657ZM138.878 26.144C137.846 26.144 136.928 25.928 136.124 25.496C135.332 25.064 134.702 24.476 134.234 23.732C133.778 22.976 133.55 22.118 133.55 21.158C133.55 20.186 133.778 19.328 134.234 18.584C134.702 17.828 135.332 17.24 136.124 16.82C136.928 16.388 137.846 16.172 138.878 16.172C139.898 16.172 140.81 16.388 141.614 16.82C142.418 17.24 143.048 17.822 143.504 18.566C143.96 19.31 144.188 20.174 144.188 21.158C144.188 22.118 143.96 22.976 143.504 23.732C143.048 24.476 142.418 25.064 141.614 25.496C140.81 25.928 139.898 26.144 138.878 26.144ZM138.878 23.84C139.346 23.84 139.766 23.732 140.138 23.516C140.51 23.3 140.804 22.994 141.02 22.598C141.236 22.19 141.344 21.71 141.344 21.158C141.344 20.594 141.236 20.114 141.02 19.718C140.804 19.322 140.51 19.016 140.138 18.8C139.766 18.584 139.346 18.476 138.878 18.476C138.41 18.476 137.99 18.584 137.618 18.8C137.246 19.016 136.946 19.322 136.718 19.718C136.502 20.114 136.394 20.594 136.394 21.158C136.394 21.71 136.502 22.19 136.718 22.598C136.946 22.994 137.246 23.3 137.618 23.516C137.99 23.732 138.41 23.84 138.878 23.84ZM150.619 29.636C149.707 29.636 148.825 29.522 147.973 29.294C147.133 29.078 146.431 28.748 145.867 28.304L146.983 26.288C147.391 26.624 147.907 26.888 148.531 27.08C149.167 27.284 149.791 27.386 150.403 27.386C151.399 27.386 152.119 27.164 152.563 26.72C153.019 26.276 153.247 25.616 153.247 24.74V23.282L153.427 20.852L153.391 18.404V16.316H156.055V24.38C156.055 26.18 155.587 27.506 154.651 28.358C153.715 29.21 152.371 29.636 150.619 29.636ZM150.187 25.532C149.287 25.532 148.471 25.34 147.739 24.956C147.019 24.56 146.437 24.014 145.993 23.318C145.561 22.61 145.345 21.788 145.345 20.852C145.345 19.904 145.561 19.082 145.993 18.386C146.437 17.678 147.019 17.132 147.739 16.748C148.471 16.364 149.287 16.172 150.187 16.172C151.003 16.172 151.723 16.34 152.347 16.676C152.971 17 153.457 17.51 153.805 18.206C154.153 18.89 154.327 19.772 154.327 20.852C154.327 21.92 154.153 22.802 153.805 23.498C153.457 24.182 152.971 24.692 152.347 25.028C151.723 25.364 151.003 25.532 150.187 25.532ZM150.745 23.228C151.237 23.228 151.675 23.132 152.059 22.94C152.443 22.736 152.743 22.454 152.959 22.094C153.175 21.734 153.283 21.32 153.283 20.852C153.283 20.372 153.175 19.958 152.959 19.61C152.743 19.25 152.443 18.974 152.059 18.782C151.675 18.578 151.237 18.476 150.745 18.476C150.253 18.476 149.815 18.578 149.431 18.782C149.047 18.974 148.741 19.25 148.513 19.61C148.297 19.958 148.189 20.372 148.189 20.852C148.189 21.32 148.297 21.734 148.513 22.094C148.741 22.454 149.047 22.736 149.431 22.94C149.815 23.132 150.253 23.228 150.745 23.228ZM170.084 26.216C169.088 26.216 168.164 26.054 167.312 25.73C166.472 25.406 165.74 24.95 165.116 24.362C164.504 23.774 164.024 23.084 163.676 22.292C163.34 21.5 163.172 20.636 163.172 19.7C163.172 18.764 163.34 17.9 163.676 17.108C164.024 16.316 164.51 15.626 165.134 15.038C165.758 14.45 166.49 13.994 167.33 13.67C168.17 13.346 169.082 13.184 170.066 13.184C171.062 13.184 171.974 13.346 172.802 13.67C173.642 13.994 174.368 14.45 174.98 15.038C175.604 15.626 176.09 16.316 176.438 17.108C176.786 17.888 176.96 18.752 176.96 19.7C176.96 20.636 176.786 21.506 176.438 22.31C176.09 23.102 175.604 23.792 174.98 24.38C174.368 24.956 173.642 25.406 172.802 25.73C171.974 26.054 171.068 26.216 170.084 26.216ZM170.066 23.732C170.63 23.732 171.146 23.636 171.614 23.444C172.094 23.252 172.514 22.976 172.874 22.616C173.234 22.256 173.51 21.83 173.702 21.338C173.906 20.846 174.008 20.3 174.008 19.7C174.008 19.1 173.906 18.554 173.702 18.062C173.51 17.57 173.234 17.144 172.874 16.784C172.526 16.424 172.112 16.148 171.632 15.956C171.152 15.764 170.63 15.668 170.066 15.668C169.502 15.668 168.98 15.764 168.5 15.956C168.032 16.148 167.618 16.424 167.258 16.784C166.898 17.144 166.616 17.57 166.412 18.062C166.22 18.554 166.124 19.1 166.124 19.7C166.124 20.288 166.22 20.834 166.412 21.338C166.616 21.83 166.892 22.256 167.24 22.616C167.6 22.976 168.02 23.252 168.5 23.444C168.98 23.636 169.502 23.732 170.066 23.732ZM183.039 26.144C182.235 26.144 181.515 25.988 180.879 25.676C180.255 25.364 179.769 24.89 179.421 24.254C179.073 23.606 178.899 22.784 178.899 21.788V16.316H181.707V21.374C181.707 22.178 181.875 22.772 182.211 23.156C182.559 23.528 183.045 23.714 183.669 23.714C184.101 23.714 184.485 23.624 184.821 23.444C185.157 23.252 185.421 22.964 185.613 22.58C185.805 22.184 185.901 21.692 185.901 21.104V16.316H188.709V26H186.045V23.336L186.531 24.11C186.207 24.782 185.727 25.292 185.091 25.64C184.467 25.976 183.783 26.144 183.039 26.144ZM195.271 26.144C194.131 26.144 193.243 25.856 192.607 25.28C191.971 24.692 191.653 23.822 191.653 22.67V14.174H194.461V22.634C194.461 23.042 194.569 23.36 194.785 23.588C195.001 23.804 195.295 23.912 195.667 23.912C196.111 23.912 196.489 23.792 196.801 23.552L197.557 25.532C197.269 25.736 196.921 25.892 196.513 26C196.117 26.096 195.703 26.144 195.271 26.144ZM190.159 18.692V16.532H196.873V18.692H190.159Z" fill="white"/>
<defs>
<linearGradient id="paint0_linear_253_186" x1="161" y1="1" x2="161" y2="38" gradientUnits="userSpaceOnUse">
<stop stop-color="#131313"/>
<stop offset="1" stop-color="#393939"/>
</linearGradient>
</defs>
</svg>
