<?xml version="1.0" standalone="no"?>
<!DOCTYPE svg PUBLIC "-//W3C//DTD SVG 20010904//EN"
 "http://www.w3.org/TR/2001/REC-SVG-20010904/DTD/svg10.dtd">
<svg version="1.0" xmlns="http://www.w3.org/2000/svg"
 width="35.000000pt" height="38.000000pt" viewBox="0 0 35.000000 38.000000"
 preserveAspectRatio="xMidYMid meet">

<g transform="translate(0.000000,38.000000) scale(0.100000,-0.100000)"
fill="#000000" stroke="none">
<path d="M62 188 l3 -153 110 0 110 0 3 124 c3 123 2 124 -25 153 -25 27 -31
28 -115 28 l-89 0 3 -152z m158 113 c0 -25 4 -30 28 -33 l27 -3 3 -107 3 -108
-106 0 -105 0 0 140 0 140 75 0 75 0 0 -29z m35 -1 c18 -19 17 -20 -3 -20 -15
0 -22 6 -22 20 0 11 2 20 3 20 2 0 12 -9 22 -20z"/>
<path d="M138 213 c23 -2 59 -2 80 0 20 2 1 4 -43 4 -44 0 -61 -2 -37 -4z"/>
<path d="M105 180 c-4 -6 22 -10 70 -10 48 0 74 4 70 10 -3 6 -35 10 -70 10
-35 0 -67 -4 -70 -10z"/>
<path d="M105 140 c8 -13 132 -13 140 0 4 6 -22 10 -70 10 -48 0 -74 -4 -70
-10z"/>
<path d="M123 103 c15 -2 39 -2 55 0 15 2 2 4 -28 4 -30 0 -43 -2 -27 -4z"/>
</g>
</svg>
