<svg width="42" height="42" viewBox="0 0 42 42" fill="none" xmlns="http://www.w3.org/2000/svg">
<circle cx="21" cy="21" r="21" fill="#EDEDED"/>
<path d="M8.37501 7.375L13.6092 12.6092M13.6092 12.6092L18.4064 17.4064M13.6092 12.6092L24.5936 23.5936M13.6092 12.6092C15.8839 11.1427 18.593 10.2917 21.5006 10.2917C28.0306 10.2917 33.5581 14.5834 35.4163 20.5C34.3854 23.7823 32.2253 26.5645 29.3913 28.3913M34.625 33.625L29.3913 28.3913M29.3913 28.3913L24.5936 23.5936M24.2342 30.4525C23.3487 30.6205 22.435 30.7083 21.5007 30.7083C14.9708 30.7083 9.44326 26.4166 7.58496 20.5C8.09086 18.8893 8.86867 17.399 9.8646 16.083M18.4064 17.4064C19.1982 16.6147 20.2919 16.125 21.5 16.125C23.9163 16.125 25.875 18.0837 25.875 20.5C25.875 21.7081 25.3853 22.8018 24.5936 23.5936M18.4064 17.4064L24.5936 23.5936" stroke="#111827" stroke-width="2" stroke-linecap="round" stroke-linejoin="round"/>
</svg>
