<svg width="245" height="354" viewBox="0 0 245 354" fill="none" xmlns="http://www.w3.org/2000/svg">
<path fill-rule="evenodd" clip-rule="evenodd" d="M0 44C0 35.7157 6.71573 29 15 29H230C238.284 29 245 35.7157 245 44V128.746C235.932 130.197 229 138.122 229 147.68C229 157.238 235.932 165.162 245 166.614V339C245 347.284 238.284 354 230 354H15C6.71572 354 0 347.284 0 339V166.426C8.57267 164.572 15 156.883 15 147.68C15 138.476 8.57267 130.787 0 128.934V44Z" fill="url(#paint0_linear_548_48)"/>
<line x1="15" y1="147.5" x2="229" y2="147.5" stroke="white" stroke-dasharray="3 3"/>
<circle cx="122" cy="29" r="29" fill="#78CD85" fill-opacity="0.3"/>
<circle cx="122" cy="29" r="17" fill="#78CD85"/>
<g clip-path="url(#clip0_548_48)">
<path d="M119.52 34.0532C119.123 34.0534 118.742 33.8954 118.461 33.6142L115.258 30.4128C114.914 30.0681 114.914 29.5093 115.258 29.1646C115.603 28.82 116.162 28.82 116.507 29.1646L119.52 32.1783L127.493 24.2053C127.838 23.8607 128.397 23.8607 128.742 24.2053C129.086 24.55 129.086 25.1088 128.742 25.4535L120.58 33.6142C120.299 33.8954 119.918 34.0534 119.52 34.0532Z" fill="white"/>
</g>
<defs>
<linearGradient id="paint0_linear_548_48" x1="122.5" y1="29" x2="122.5" y2="354" gradientUnits="userSpaceOnUse">
<stop stop-color="#131313"/>
<stop offset="1" stop-color="#393939"/>
</linearGradient>
<clipPath id="clip0_548_48">
<rect width="14" height="14" fill="white" transform="translate(115 22)"/>
</clipPath>
</defs>
</svg>
